<?xml version="1.0" standalone="yes"?>
<!DOCTYPE svg PUBLIC "-//W3C//DTD SVG 1.1//EN"
 "http://www.w3.org/Graphics/SVG/1.1/DTD/svg11.dtd">
<svg xmlns="http://www.w3.org/2000/svg" version="1.1"
  width="100%" height="100%" viewBox="0 0 1024 768"
  style="fill: none; font-family: Helvetica;
 font: Helvetica;
">

<!-- Creator: NGspice -->

<rect x="0" y="0" width="1024" height="768" fill="black" stroke="none"/>
<text stroke="none" fill="white" font-size="16" x="358" y="752">
time
</text>
<text stroke="none" fill="white" font-size="16" x="10" y="16">
tran2: ** sch_path: /foss/designs/work/xschem/tb_nand1_3.sch
</text>
<path stroke="white" stroke-dasharray="1,2" d="M50 720l0 -672"/>
<text stroke="none" fill="white" font-size="16" x="35" y="728">
1.0
</text>
<path stroke="white" stroke-dasharray="1,2" d="M121 720l0 -672"/>
<text stroke="none" fill="white" font-size="16" x="106" y="728">
1.5
</text>
<path stroke="white" stroke-dasharray="1,2" d="M192 720l0 -672"/>
<text stroke="none" fill="white" font-size="16" x="177" y="728">
2.0
</text>
<path stroke="white" stroke-dasharray="1,2" d="M263 720l0 -672"/>
<text stroke="none" fill="white" font-size="16" x="248" y="728">
2.5
</text>
<path stroke="white" stroke-dasharray="1,2" d="M334 720l0 -672"/>
<text stroke="none" fill="white" font-size="16" x="319" y="728">
3.0
</text>
<path stroke="white" stroke-dasharray="1,2" d="M405 720l0 -672"/>
<text stroke="none" fill="white" font-size="16" x="390" y="728">
3.5
</text>
<path stroke="white" stroke-dasharray="1,2" d="M476 720l0 -672"/>
<text stroke="none" fill="white" font-size="16" x="461" y="728">
4.0
</text>
<path stroke="white" stroke-dasharray="1,2" d="M547 720l0 -672"/>
<text stroke="none" fill="white" font-size="16" x="532" y="728">
4.5
</text>
<path stroke="white" stroke-dasharray="1,2" d="M618 720l0 -672"/>
<text stroke="none" fill="white" font-size="16" x="603" y="728">
5.0
</text>
<path stroke="white" stroke-dasharray="1,2" d="M689 720l0 -672"/>
<text stroke="none" fill="white" font-size="16" x="674" y="728">
5.5
</text>
<path stroke="white" stroke-dasharray="1,2" d="M760 720l0 -672"/>
<text stroke="none" fill="white" font-size="16" x="745" y="728">
6.0
</text>
<path stroke="white" stroke-dasharray="1,2" d="M831 720l0 -672"/>
<text stroke="none" fill="white" font-size="16" x="816" y="728">
6.5
</text>
<path stroke="white" stroke-dasharray="1,2" d="M902 720l0 -672"/>
<text stroke="none" fill="white" font-size="16" x="887" y="728">
7.0
</text>
<path stroke="white" stroke-dasharray="1,2" d="M973 720l0 -672"/>
<text stroke="none" fill="white" font-size="16" x="958" y="728">
7.5
</text>
<text stroke="none" fill="white" font-size="16" x="614" y="752">
ns
</text>
<path stroke="white" stroke-dasharray="1,2" d="M50 720l923 0"/>
<text stroke="none" fill="white" font-size="16" x="8" y="728">
-0.5
</text>
<path stroke="white" d="M50 636l923 0"/>
<text stroke="none" fill="white" font-size="16" x="18" y="644">
0.0
</text>
<path stroke="white" stroke-dasharray="1,2" d="M50 552l923 0"/>
<text stroke="none" fill="white" font-size="16" x="18" y="560">
0.5
</text>
<path stroke="white" stroke-dasharray="1,2" d="M50 468l923 0"/>
<text stroke="none" fill="white" font-size="16" x="18" y="476">
1.0
</text>
<path stroke="white" stroke-dasharray="1,2" d="M50 384l923 0"/>
<text stroke="none" fill="white" font-size="16" x="18" y="392">
1.5
</text>
<path stroke="white" stroke-dasharray="1,2" d="M50 300l923 0"/>
<text stroke="none" fill="white" font-size="16" x="18" y="308">
2.0
</text>
<path stroke="white" stroke-dasharray="1,2" d="M50 216l923 0"/>
<text stroke="none" fill="white" font-size="16" x="18" y="224">
2.5
</text>
<path stroke="white" stroke-dasharray="1,2" d="M50 132l923 0"/>
<text stroke="none" fill="white" font-size="16" x="18" y="140">
3.0
</text>
<path stroke="white" stroke-dasharray="1,2" d="M50 48l923 0"/>
<text stroke="none" fill="white" font-size="16" x="18" y="56">
3.5
</text>
<text stroke="none" fill="white" font-size="16" x="10" y="32">
V
</text>
<path stroke="red" d="M461 23l46 0"/>
<text stroke="none" fill="white" font-size="16" x="517" y="32">
v(y)
</text>
<path stroke="red" d="M50 82l0 -2 1 0 0 -2 1 -1 0 -1 1 -1 0 -2 1 0 0 -1 1 -1 0 -1 1 0 0 -2 1 0 0 -1 1 0 0 -1 1 0 0 -1 1 0 0 -1 2 0M62 65l0 -1M62 65l1 0M63 67l0 -2M63 67l1 0M64 70l0 -3M64 70l1 0M65 74l0 -4M65 74l1 0M66 78l0 -4M66 78l1 0M67 82l0 -4"/>
<path stroke="red" d="M67 82l1 0M68 86l0 -4M68 86l1 0M69 90l0 -4M69 90l1 1M70 94l0 -3M70 94l1 1M71 98l0 -3M71 98l1 1M72 102l0 -3M72 102l1 1M73 106l0 -3M73 106l1 1M74 111l0 -4M74 111l1 1M75 115l0 -3M75 115l1 1M76 119l0 -3M76 119l1 1M77 123l0 -3"/>
<path stroke="red" d="M77 123l1 1M78 128l0 -4M78 128l1 0M79 132l0 -4M79 132l1 0M80 136l0 -4M80 136l1 0M81 140l0 -4M81 140l1 1M82 144l0 -3M82 144l1 1M83 148l0 -3M83 148l1 1M84 152l0 -3M84 152l1 1M85 156l0 -3M85 156l1 1M86 160l0 -3M86 160l1 1M87 165l0 -4"/>
<path stroke="red" d="M87 165l1 0M88 169l0 -4M88 169l1 0M89 173l0 -4M89 173l1 0M90 177l0 -4M90 177l1 1M91 181l0 -3M91 181l1 1M92 185l0 -3M92 185l1 1M93 189l0 -3M93 189l1 1M94 193l0 -3M94 193l1 1M95 197l0 -3M95 197l1 1M96 202l0 -4M96 202l1 0M97 206l0 -4"/>
<path stroke="red" d="M97 206l1 1M98 210l0 -3M98 210l1 1M99 214l0 -3M99 214l1 1M100 218l0 -3M100 218l1 1M101 223l0 -4M101 223l1 0M102 227l0 -4M102 227l1 0M103 231l0 -4M103 231l1 0M104 235l0 -4M104 235l1 0M105 239l0 -4M105 239l1 0M106 243l0 -4"/>
<path stroke="red" d="M106 243l1 1M107 247l0 -3M107 247l1 1M108 251l0 -3M108 251l1 1M109 255l0 -3M109 255l1 1M110 259l0 -3M110 259l1 1M111 263l0 -3M111 263l1 1M112 267l0 -3M112 267l1 1M113 271l0 -3M113 271l1 1M114 275l0 -3M114 275l1 1M115 279l0 -3"/>
<path stroke="red" d="M115 279l1 1M116 283l0 -3M116 283l1 1M117 288l0 -4M117 288l1 0M118 292l0 -4M118 292l1 0M119 296l0 -4M119 296l1 0M120 300l0 -4M120 300l1 0M121 304l0 -4M121 304l1 1M122 308l0 -3M122 308l1 1M123 312l0 -3M123 312l1 1M124 316l0 -3"/>
<path stroke="red" d="M124 316l1 1M125 320l0 -3M125 320l1 1M126 324l0 -3M126 324l1 0M127 328l0 -4M127 328l1 0M128 332l0 -4M128 332l1 0M129 336l0 -4M129 336l1 0M130 339l0 -3M130 339l1 1M131 343l0 -3M131 343l1 1M132 347l0 -3M132 347l1 1M133 351l0 -3"/>
<path stroke="red" d="M133 351l1 0M134 355l0 -4M134 355l1 0M135 358l0 -3M135 358l1 1M136 362l0 -3M136 362l1 1M137 366l0 -3M137 366l1 0M138 370l0 -4M138 370l1 0M139 373l0 -3M139 373l1 1M140 377l0 -3M140 377l1 0M141 380l0 -3M141 380l1 1M142 384l0 -3"/>
<path stroke="red" d="M142 384l1 1M143 388l0 -3M143 388l1 0M144 391l0 -3M144 391l1 1M145 395l0 -3M145 395l1 1M146 399l0 -3M146 399l1 0M147 402l0 -3M147 402l1 1M148 406l0 -3M148 406l1 0M149 409l0 -3M149 409l1 0M150 412l0 -3M150 412l1 1M151 416l0 -3"/>
<path stroke="red" d="M151 416l1 0M152 419l0 -3M152 419l1 0M153 422l0 -3M153 422l1 1M154 425l0 -2M154 425l1 1M155 429l0 -3M155 429l1 0M156 432l0 -3M156 432l1 0M157 435l0 -3M157 435l1 0M158 438l0 -3M158 438l1 0M159 441l0 -3M159 441l1 1M160 444l0 -2"/>
<path stroke="red" d="M160 444l1 1M161 447l0 -2M161 447l1 1M162 450l0 -2M162 450l1 1M163 453l0 -2M163 453l1 1M164 456l0 -2M164 456l1 0M165 459l0 -3M165 459l1 0M166 462l0 -3M166 462l1 0M167 465l0 -3M167 465l1 0M168 468l0 -3M168 468l1 0M169 471l0 -3"/>
<path stroke="red" d="M169 471l1 0M170 473l0 -2M170 473l1 1M171 476l0 -2M171 476l1 0M172 479l0 -3M172 479l1 0M173 481l0 -2M173 481l1 1M174 484l0 -2M174 484l1 0M175 486l0 -2M175 486l1 1M176 489l0 -2M176 489l1 0M177 491l0 -2M177 491l1 1M178 494l0 -2"/>
<path stroke="red" d="M178 494l1 0M179 496l0 -2M179 496l1 1M180 499l0 -2M180 499l1 0M181 501l0 -2M181 501l1 0M182 503l0 -2M182 503l1 1M183 506l0 -2M183 506l1 0M184 508l0 -2M184 508l1 0M185 510l0 -2M185 510l1 1M186 512l0 -1M186 512l1 1M187 515l0 -2"/>
<path stroke="red" d="M187 515l1 0M188 517l0 -2M188 517l1 0M189 519l0 -2M189 519l1 0M190 521l0 -2M190 521l1 0M191 523l0 -2M191 523l1 0M192 525l0 -2M192 525l1 1M193 527l0 -1M193 527l1 1M194 529l0 -1M194 529l1 0M195 531l0 -2M195 531l1 0M196 533l0 -2"/>
<path stroke="red" d="M196 533l1 0M197 535l0 -2M197 535l1 0M198 537l0 -2M198 537l1 0M199 539l0 -2M199 539l1 0M200 540l0 -1M200 540l1 1M201 542l0 -1M201 542l1 0M202 544l0 -2M202 544l1 0M203 545l0 -1M203 545l1 1M204 547l0 -1M204 547l1 0M205 549l0 -2"/>
<path stroke="red" d="M205 549l1 0M206 550l0 -1M206 550l1 1M207 552l0 -1M207 552l1 0M208 554l0 -2M208 554l1 0M209 555l0 -1M209 555l1 0M210 557l0 -2M210 557l1 0M211 558l0 -1M211 558l1 0M212 560l0 -2M212 560l1 0M213 561l0 -1M213 561l1 0M214 562l0 -1"/>
<path stroke="red" d="M214 562l1 1M215 564l0 -1M215 564l1 0M216 565l0 -1M216 565l1 1M217 567l0 -1M217 567l1 0M218 568l0 -1M218 568l1 0M219 569l0 -1M219 569l1 1M220 571l0 -1M220 571l1 0M221 572l0 -1M221 572l1 0M222 573l0 -1M222 573l1 0M223 574l0 -1"/>
<path stroke="red" d="M223 574l1 0M224 575l0 -1M224 575l1 1M225 577l0 -1M225 577l1 0M226 578l0 -1M226 578l1 0M227 579l0 -1M227 579l1 0M228 580l0 -1M228 580l1 0M229 581l0 -1M229 581l1 0M230 582l0 -1M230 582l1 0M231 583l0 -1M231 583l1 0M232 584l0 -1"/>
<path stroke="red" d="M232 584l1 0M233 585l0 -1M233 585l1 0M234 586l0 -1M234 586l1 0M235 587l0 -1M235 587l1 0M236 588l0 -1M236 588l1 0M237 589l0 -1M237 589l1 0M238 590l0 -1M238 590l1 0M239 591l0 -1M239 591l1 0M240 592l0 -1M240 592l1 0M241 593l0 -1"/>
<path stroke="red" d="M241 593l1 0M242 594l0 -1M242 594l1 0 1 1 1 0M245 596l0 -1M245 596l1 0M246 597l0 -1M246 597l1 0M247 598l0 -1M247 598l1 0 1 1 1 0M250 600l0 -1M250 600l1 0M251 601l0 -1M251 601l2 0M253 602l0 -1M253 602l1 0M254 603l0 -1M254 603l2 0"/>
<path stroke="red" d="M256 604l0 -1M256 604l1 0M257 605l0 -1M257 605l2 0M259 606l0 -1M259 606l1 0M260 607l0 -1M260 607l2 0M262 608l0 -1M262 608l2 0M264 609l0 -1M264 609l1 0 1 1 1 0M267 611l0 -1M267 611l2 0M269 612l0 -1M269 612l2 0M271 613l0 -1"/>
<path stroke="red" d="M271 613l2 0 1 1 2 0M276 615l0 -1M276 615l2 0M278 616l0 -1M278 616l2 0 1 1 2 0M283 618l0 -1M283 618l3 0M286 619l0 -1M286 619l2 0 1 1 2 0 1 1 3 0M295 622l0 -1M295 622l3 0M298 623l0 -1M298 623l4 0M302 624l0 -1M302 624l4 0"/>
<path stroke="red" d="M306 625l0 -1M306 625l4 0M310 626l0 -1M310 626l5 0M315 627l0 -1M315 627l5 0M320 628l0 -1M320 628l6 0M326 629l0 -1M326 629l7 0M333 630l0 -1M333 630l8 0M341 631l0 -1M341 631l9 0 1 1 11 0M362 633l0 -1M362 633l16 0M378 634l0 -1"/>
<path stroke="red" d="M378 634l24 0 1 1 51 0M454 636l0 -1M454 636l321 0M775 637l0 -1M775 637l1 0M776 638l0 -1M776 638l1 0M777 639l0 -1M777 639l1 0M778 640l0 -1M778 640l1 0M779 641l0 -1M779 641l3 0 0 -1 1 -1 0 -1 1 -1 0 -2 1 -1 0 -3 1 -1 0 -5"/>
<path stroke="red" d="M786 625l1 0 0 -6 1 -1 0 -6 1 -1 0 -8 1 -1 0 -7 1 -1 0 -7 1 -1 0 -8 1 -1 0 -7 1 -1 0 -7 1 -1 0 -7 1 -2 0 -7 1 -1 0 -7 1 -1 0 -7 1 -1 0 -7 1 -1 0 -7 1 -2 0 -7 1 -1 0 -7 1 -1 0 -7 1 -1 0 -7 1 -1 0 -7 1 -1 0 -7 1 -1 0 -8 1 -1"/>
<path stroke="red" d="M808 454l0 -7 1 -1 0 -7 1 -1 0 -6 1 -2 0 -6 1 -1 0 -7 1 -1 0 -7 1 -1 0 -6 1 -2 0 -6 1 -1 0 -7 1 -1 0 -6 1 -1 0 -7 1 -1 0 -6 1 -1 0 -6 1 -1 0 -7 1 -1 0 -6 1 -1 0 -6 1 -1 0 -6 1 -1 0 -6 1 -1 0 -5 1 -1 0 -6 1 -1 0 -5 1 -1 0 -6"/>
<path stroke="red" d="M829 294l1 -1 0 -5 1 -1 0 -6 1 -1 0 -5 1 -1 0 -5 1 -1 0 -5 1 -1 0 -5 1 -1 0 -4 1 -1 0 -5 1 -1 0 -4 1 -1 0 -4 1 -1 0 -4 1 -1 0 -4 1 -1 0 -4 1 -1 0 -4 1 -1 0 -4 1 0 0 -4 1 -1 0 -3 1 -1 0 -4 1 0 0 -4 1 0 0 -4 1 0 0 -4 1 0 0 -3"/>
<path stroke="red" d="M851 183l1 -1 0 -3 1 0 0 -3 1 -1 0 -3 1 0 0 -4 1 0 0 -3 1 0 0 -3 1 0 0 -3 1 0 0 -3 1 0 0 -3 1 0 0 -2 1 -1 0 -2 1 0 0 -3 1 0 0 -2 1 0 0 -2 1 -1 0 -2 1 0 0 -2 1 0 0 -2 1 0 0 -2 1 0 0 -2 1 0 0 -2 1 0 0 -2 1 0 0 -2 1 0 0 -1"/>
<path stroke="red" d="M874 123l1 0 0 -2 1 0 0 -1 1 -1 0 -1 1 0 0 -2 1 0 0 -1 1 0 0 -1 1 -1 0 -1 1 0 0 -1 1 0 0 -1 1 0 0 -1 1 0 0 -1 1 0 0 -1 3 -3 1 0 0 -1 1 0 0 -1 1 0 0 -1 1 0 0 -1 1 0 0 -1 2 0 0 -1 1 0 0 -1 2 0 0 -1 1 0 0 -1 2 0 0 -1 2 0 0 -1"/>
<path stroke="red" d="M904 93l2 0 0 -1 2 0 0 -1 3 0 0 -1 2 0 1 -1 3 0 0 -1 3 0 0 -1 5 0 0 -1 5 0 0 -1 7 0 0 -1 10 0 0 -1 17 0 0 -1 9 0"/>
<path stroke="blue" d="M50 23l46 0"/>
<text stroke="none" fill="white" font-size="16" x="106" y="32">
v(a)
</text>
<path stroke="blue" d="M50 635l0 -18 1 -6 0 -33 1 -6 0 -33 1 -6 0 -33 1 -5 0 -34 1 -5 0 -33 1 -6 0 -33 1 -6 0 -33 1 -6 0 -33 1 -5 0 -34 1 -5 0 -33 1 -6 0 -33 1 -6 0 -33 1 -6 0 -33 1 -5 0 -25 710 0M774 90l0 -8M774 90l1 5M775 129l0 -34M775 129l1 5"/>
<path stroke="blue" d="M776 168l0 -34M776 168l1 5M777 206l0 -33M777 206l1 6M778 245l0 -33M778 245l1 6M779 284l0 -33M779 284l1 6M780 323l0 -33M780 323l1 5M781 362l0 -34M781 362l1 5M782 400l0 -33M782 400l1 6M783 439l0 -33M783 439l1 6M784 484l0 -39"/>
<path stroke="blue" d="M784 484l1 5M785 522l0 -33M785 522l1 6M786 561l0 -33M786 561l1 6M787 600l0 -33M787 600l1 6M788 636l0 -30M788 636l185 0"/>
</svg>
