<?xml version="1.0" standalone="yes"?>
<!DOCTYPE svg PUBLIC "-//W3C//DTD SVG 1.1//EN"
 "http://www.w3.org/Graphics/SVG/1.1/DTD/svg11.dtd">
<svg xmlns="http://www.w3.org/2000/svg" version="1.1"
  width="100%" height="100%" viewBox="0 0 1024 768"
  style="fill: none; font-family: Helvetica;
 font: Helvetica;
">

<!-- Creator: NGspice -->

<rect x="0" y="0" width="1024" height="768" fill="black" stroke="none"/>
<text stroke="none" fill="white" font-size="16" x="358" y="752">
time
</text>
<text stroke="none" fill="white" font-size="16" x="10" y="16">
tran1: ** sch_path: /foss/designs/work/xschem/tb_nand1_3.sch
</text>
<path stroke="white" d="M60 720l0 -672"/>
<text stroke="none" fill="white" font-size="16" x="45" y="728">
0.0
</text>
<path stroke="white" stroke-dasharray="1,2" d="M150 720l0 -672"/>
<text stroke="none" fill="white" font-size="16" x="135" y="728">
2.0
</text>
<path stroke="white" stroke-dasharray="1,2" d="M240 720l0 -672"/>
<text stroke="none" fill="white" font-size="16" x="225" y="728">
4.0
</text>
<path stroke="white" stroke-dasharray="1,2" d="M330 720l0 -672"/>
<text stroke="none" fill="white" font-size="16" x="315" y="728">
6.0
</text>
<path stroke="white" stroke-dasharray="1,2" d="M420 720l0 -672"/>
<text stroke="none" fill="white" font-size="16" x="405" y="728">
8.0
</text>
<path stroke="white" stroke-dasharray="1,2" d="M510 720l0 -672"/>
<text stroke="none" fill="white" font-size="16" x="490" y="728">
10.0
</text>
<path stroke="white" stroke-dasharray="1,2" d="M600 720l0 -672"/>
<text stroke="none" fill="white" font-size="16" x="580" y="728">
12.0
</text>
<path stroke="white" stroke-dasharray="1,2" d="M690 720l0 -672"/>
<text stroke="none" fill="white" font-size="16" x="670" y="728">
14.0
</text>
<path stroke="white" stroke-dasharray="1,2" d="M780 720l0 -672"/>
<text stroke="none" fill="white" font-size="16" x="760" y="728">
16.0
</text>
<path stroke="white" stroke-dasharray="1,2" d="M870 720l0 -672"/>
<text stroke="none" fill="white" font-size="16" x="850" y="728">
18.0
</text>
<path stroke="white" stroke-dasharray="1,2" d="M960 720l0 -672"/>
<text stroke="none" fill="white" font-size="16" x="940" y="728">
20.0
</text>
<text stroke="none" fill="white" font-size="16" x="614" y="752">
ns
</text>
<path stroke="white" stroke-dasharray="1,2" d="M60 720l900 0"/>
<text stroke="none" fill="white" font-size="16" x="18" y="728">
-2.0
</text>
<path stroke="white" d="M60 636l900 0"/>
<text stroke="none" fill="white" font-size="16" x="28" y="644">
0.0
</text>
<path stroke="white" stroke-dasharray="1,2" d="M60 552l900 0"/>
<text stroke="none" fill="white" font-size="16" x="28" y="560">
2.0
</text>
<path stroke="white" stroke-dasharray="1,2" d="M60 468l900 0"/>
<text stroke="none" fill="white" font-size="16" x="28" y="476">
4.0
</text>
<path stroke="white" stroke-dasharray="1,2" d="M60 384l900 0"/>
<text stroke="none" fill="white" font-size="16" x="28" y="392">
6.0
</text>
<path stroke="white" stroke-dasharray="1,2" d="M60 300l900 0"/>
<text stroke="none" fill="white" font-size="16" x="28" y="308">
8.0
</text>
<path stroke="white" stroke-dasharray="1,2" d="M60 216l900 0"/>
<text stroke="none" fill="white" font-size="16" x="18" y="224">
10.0
</text>
<path stroke="white" stroke-dasharray="1,2" d="M60 132l900 0"/>
<text stroke="none" fill="white" font-size="16" x="18" y="140">
12.0
</text>
<path stroke="white" stroke-dasharray="1,2" d="M60 48l900 0"/>
<text stroke="none" fill="white" font-size="16" x="18" y="56">
14.0
</text>
<text stroke="none" fill="white" font-size="16" x="10" y="32">
     
</text>
<path stroke="red" d="M450 23l45 0"/>
<text stroke="none" fill="white" font-size="16" x="505" y="32">
v(y)
</text>
<path stroke="red" d="M60 497l45 0 0 -1 1 0 0 -1 1 0 0 -1 1 0 0 -1 1 0M109 494l0 -1M109 494l1 0M110 497l0 -3M110 497l1 0M111 501l0 -4M111 501l1 0M112 504l0 -3M112 504l1 0M113 507l0 -3M113 507l1 0M114 510l0 -3M114 510l1 1M115 514l0 -3M115 514l1 0"/>
<path stroke="red" d="M116 517l0 -3M116 517l1 0M117 520l0 -3M117 520l1 0M118 523l0 -3M118 523l1 1M119 527l0 -3M119 527l1 0M120 530l0 -3M120 530l1 0M121 533l0 -3M121 533l1 0M122 536l0 -3M122 536l1 1M123 540l0 -3M123 540l1 0M124 543l0 -3M124 543l1 0"/>
<path stroke="red" d="M125 546l0 -3M125 546l1 0M126 549l0 -3M126 549l1 0M127 552l0 -3M127 552l1 1M128 556l0 -3M128 556l1 0M129 559l0 -3M129 559l1 0M130 562l0 -3M130 562l1 0M131 565l0 -3M131 565l1 0M132 568l0 -3M132 568l1 0M133 571l0 -3M133 571l1 0"/>
<path stroke="red" d="M134 574l0 -3M134 574l1 0M135 576l0 -2M135 576l1 1M136 579l0 -2M136 579l1 0M137 582l0 -3M137 582l1 0M138 584l0 -2M138 584l1 0M139 587l0 -3M139 587l1 0M140 589l0 -2M140 589l1 0M141 592l0 -3M141 592l1 0M142 594l0 -2M142 594l1 0"/>
<path stroke="red" d="M143 596l0 -2M143 596l1 0M144 598l0 -2M144 598l1 0M145 600l0 -2M145 600l1 0M146 602l0 -2M146 602l1 0M147 604l0 -2M147 604l1 0M148 606l0 -2M148 606l1 0M149 607l0 -1M149 607l1 0M150 609l0 -2M150 609l1 0M151 610l0 -1M151 610l1 0"/>
<path stroke="red" d="M152 612l0 -2M152 612l1 0M153 613l0 -1M153 613l1 0M154 614l0 -1M154 614l1 1M155 616l0 -1M155 616l1 0M156 617l0 -1M156 617l1 0M157 618l0 -1M157 618l1 0M158 619l0 -1M158 619l1 0M159 620l0 -1M159 620l1 0M160 621l0 -1M160 621l1 0"/>
<path stroke="red" d="M161 622l0 -1M161 622l1 0M162 623l0 -1M162 623l1 0M163 624l0 -1M163 624l2 0M165 625l0 -1M165 625l1 0M166 626l0 -1M166 626l2 0M168 627l0 -1M168 627l1 0M169 628l0 -1M169 628l2 0M171 629l0 -1M171 629l3 0M174 630l0 -1M174 630l2 0"/>
<path stroke="red" d="M176 631l0 -1M176 631l3 0M179 632l0 -1M179 632l4 0M183 633l0 -1M183 633l5 0M188 634l0 -1M188 634l8 0M196 635l0 -1M196 635l16 0M212 636l0 -1M212 636l123 0M335 637l0 -1M335 637l2 0 0 -1 1 0 0 -3 1 0 0 -6 1 0 0 -7 1 0 0 -6"/>
<path stroke="red" d="M341 614l1 -1 0 -6 1 0 0 -6 1 0 0 -7 1 0 0 -6 1 0 0 -6 1 0 0 -6 1 -1 0 -5 1 0 0 -6 1 0 0 -6 1 0 0 -5 1 0 0 -5 1 0 0 -5 1 0 0 -4 1 0 0 -4 1 -1 0 -3 1 0 0 -4 1 0 0 -3 1 0 0 -3 1 0 0 -3 1 0 0 -2 1 0 0 -2 1 0 0 -2 1 0 0 -2 1 0"/>
<path stroke="red" d="M365 510l0 -1 1 0 0 -2 1 0 0 -1 1 0 0 -1 1 0 0 -1 1 0 0 -1 2 0 0 -1 1 0 0 -1 2 0 0 -1 3 0 0 -1 5 0 0 -1 17 0 0 -1 156 0 0 -1 1 0M557 497l0 -1M557 497l1 0M558 498l0 -1M558 498l1 0M559 501l0 -3M559 501l1 0M560 504l0 -3M560 504l1 0"/>
<path stroke="red" d="M561 508l0 -4M561 508l1 0M562 510l0 -2M562 510l2 0 0 -1 1 0 0 -1 1 0 0 -1 1 0 0 -1 1 -1 1 0 0 -1 1 0 0 -1 1 0 0 -1 2 0 0 -1 2 0 0 -1 3 0 0 -1 5 0 0 -1 18 0 0 -1 184 0M785 498l0 -1M785 498l2 0M787 499l0 -1M787 499l4 0 0 -1"/>
<path stroke="red" d="M791 498l9 0 0 -1 160 0"/>
<path stroke="blue" d="M60 23l45 0"/>
<text stroke="none" fill="white" font-size="16" x="115" y="32">
cpar_vdd + v(a)
</text>
<path stroke="blue" d="M60 497l45 0 0 -14 1 -2 0 -29 1 -1 0 -31 1 -1 0 -29 1 -1 0 -30 226 0M335 389l0 -30M335 389l1 1M336 419l0 -29M336 419l1 1M337 451l0 -31M337 451l1 1M338 481l0 -29M338 481l1 2M339 497l0 -14M339 497l216 0 0 -14 1 -2 0 -29 1 -1"/>
<path stroke="blue" d="M557 451l0 -31 1 -1 0 -29 1 -1 0 -30 226 0M785 389l0 -30M785 389l1 1M786 419l0 -29M786 419l1 1M787 451l0 -31M787 451l1 1M788 481l0 -29M788 481l1 2M789 497l0 -14M789 497l171 0"/>
<path stroke="#FFA500" d="M450 39l45 0"/>
<text stroke="none" fill="white" font-size="16" x="505" y="48">
2*cpar_vdd + v(b)
</text>
<path stroke="#FFA500" d="M60 359l45 0 0 -15 1 -1 0 -29 1 -2 0 -30 1 -2 0 -29 1 -1 0 -29 1 -1 450 0M560 250l0 -30M560 250l1 1M561 280l0 -29M561 280l1 2M562 312l0 -30M562 312l1 2M563 343l0 -29M563 343l1 1M564 359l0 -15M564 359l396 0"/>
<path stroke="green" d="M60 39l45 0"/>
<text stroke="none" fill="white" font-size="16" x="115" y="48">
3*cpar_vdd + v(c)
</text>
<path stroke="green" d="M60 220l45 0 0 -14 1 -2 0 -29 1 -1 0 -31 1 -1 0 -29 1 -2 0 -29 851 0"/>
</svg>
